#N canvas 687 211 1112 632 10;
#X declare -lib mrpeach;
#X obj 142 104 udpreceive 55555;
#X obj 142 134 unpackOSC;
#X obj 142 171 routeOSC /hand/1;
#X obj 142 32 import mrpeach;
#X obj 144 72 metro 50;
#X floatatom 142 206 5 0 0 0 - - -;
#X floatatom 142 269 5 0 0 0 - - -;
#X obj 142 236 * 12;
#X obj 142 304 i;
#X obj 155 520 noteout 1;
#X obj 151 360 moses 72;
#X obj 110 413 moses 48;
#X msg 126 484 52 60;
#X msg 44 486 12 60;
#X msg 245 481 95 60;
#X connect 0 0 1 0;
#X connect 1 0 2 0;
#X connect 2 0 5 0;
#X connect 4 0 0 0;
#X connect 5 0 7 0;
#X connect 6 0 8 0;
#X connect 7 0 6 0;
#X connect 8 0 10 0;
#X connect 10 0 11 0;
#X connect 10 1 14 0;
#X connect 11 0 13 0;
#X connect 11 1 12 0;
#X connect 12 0 9 0;
#X connect 13 0 9 0;
#X connect 14 0 9 0;
